<svg width="32" height="50" viewBox="0 0 32 50" fill="none" xmlns="http://www.w3.org/2000/svg">
<g clip-path="url(#clip0_6_107)">
<path d="M4.371 50V47.102H14.587V40.93C6.391 40.113 0.038 33.272 0 24.938V24.934H2.881C2.895 29.331 5.074 33.216 8.407 35.581L8.448 35.608C10.52 37.153 13.131 38.082 15.959 38.082C16.196 38.082 16.432 38.075 16.667 38.063L16.634 38.064C23.627 37.725 29.177 32.004 29.24 24.973V24.967H32.138C32.138 25 32.138 25.039 32.138 25.078C32.138 29.228 30.531 33.003 27.905 35.815L27.913 35.806C25.306 38.656 21.696 40.55 17.645 40.926L17.582 40.931V47.021H27.831V49.968L4.371 50Z" fill="#CCBA8D"/>
<g filter="url(#filter0_d_6_107)">
<path d="M26.326 11.706V16.11H19.04V19.024H26.309V23.412H19.056V26.359H26.194C25.475 31.369 21.212 35.177 16.06 35.177C10.908 35.177 6.64496 31.369 5.93196 26.414L5.92596 26.359H13.097V23.461H5.86096V19.057H13.097V16.126H5.86096V11.755H13.097V8.792H5.95896C6.72396 3.832 10.963 0.0780029 16.078 0.0780029C21.187 0.0780029 25.422 3.823 26.187 8.718L26.194 8.776H19.039V11.707L26.326 11.706Z" fill="#BDAE82"/>
<path d="M19.039 12.207L25.826 12.2061V15.61H19.04H18.54V16.11V19.024V19.524H19.04H25.809V22.912H19.056H18.556V23.412V26.359V26.859H19.056H25.6C24.6862 31.3429 20.7607 34.677 16.06 34.677C11.3407 34.677 7.40487 31.3172 6.51542 26.859H13.097H13.597V26.359V23.461V22.961H13.097H6.36096V19.557H13.097H13.597V19.057V16.126V15.626H13.097H6.36096V12.255H13.097H13.597V11.755V8.792V8.292H13.097H6.5595C7.51435 3.85932 11.415 0.578003 16.078 0.578003C20.7545 0.578003 24.662 3.87757 25.5973 8.276H19.039H18.539V8.776V11.707V12.2071L19.039 12.207Z" stroke="black"/>
</g>
</g>
<defs>
<filter id="filter0_d_6_107" x="1.86096" y="0.0780029" width="28.465" height="43.099" filterUnits="userSpaceOnUse" color-interpolation-filters="sRGB">
<feFlood flood-opacity="0" result="BackgroundImageFix"/>
<feColorMatrix in="SourceAlpha" type="matrix" values="0 0 0 0 0 0 0 0 0 0 0 0 0 0 0 0 0 0 127 0" result="hardAlpha"/>
<feOffset dy="4"/>
<feGaussianBlur stdDeviation="2"/>
<feComposite in2="hardAlpha" operator="out"/>
<feColorMatrix type="matrix" values="0 0 0 0 0 0 0 0 0 0 0 0 0 0 0 0 0 0 0.25 0"/>
<feBlend mode="normal" in2="BackgroundImageFix" result="effect1_dropShadow_6_107"/>
<feBlend mode="normal" in="SourceGraphic" in2="effect1_dropShadow_6_107" result="shape"/>
</filter>
<clipPath id="clip0_6_107">
<rect width="32" height="50" fill="white"/>
</clipPath>
</defs>
</svg>
